<?xml version="1.0" standalone="no"?>
<!DOCTYPE svg PUBLIC "-//W3C//DTD SVG 20010904//EN"
 "http://www.w3.org/TR/2001/REC-SVG-20010904/DTD/svg10.dtd">
<svg version="1.0" xmlns="http://www.w3.org/2000/svg"
 width="500.000000pt" height="500.000000pt" viewBox="0 0 500.000000 500.000000"
 preserveAspectRatio="xMidYMid meet">

<g transform="translate(0.000000,500.000000) scale(0.100000,-0.100000)"
fill="#000000" stroke="none">
<path d="M1674 3465 c-385 -68 -679 -350 -769 -739 -41 -176 -37 -416 9 -600
29 -113 97 -262 160 -350 100 -141 274 -273 433 -330 227 -80 525 -72 743 20
218 92 385 269 461 487 47 136 57 127 -131 127 -144 0 -161 -2 -167 -17 -30
-88 -82 -174 -142 -233 -119 -118 -240 -163 -431 -163 -98 0 -126 4 -188 26
-209 73 -365 250 -434 492 -20 70 -23 103 -23 255 0 205 10 254 82 400 38 78
60 109 127 175 201 200 475 248 726 128 98 -47 193 -141 240 -235 l33 -68 164
0 163 0 -6 28 c-14 60 -70 179 -116 249 -109 163 -307 292 -518 338 -105 23
-315 28 -416 10z"/>
<path d="M2990 3465 c-86 -14 -232 -61 -279 -91 -50 -32 -121 -88 -121 -96 0
-4 24 -38 53 -76 29 -38 66 -94 82 -125 32 -61 40 -67 50 -38 3 11 26 38 51
61 80 73 169 100 339 100 274 0 440 -100 520 -312 l18 -48 142 0 143 0 -9 39
c-45 201 -172 383 -335 479 -176 105 -415 144 -654 107z"/>
<path d="M2460 2745 c0 -34 56 -123 109 -175 101 -99 239 -153 554 -220 357
-76 452 -109 531 -187 110 -108 108 -286 -6 -388 -85 -78 -201 -110 -383 -108
-207 2 -354 52 -455 155 l-46 47 -31 -63 c-17 -34 -54 -92 -81 -129 l-51 -66
42 -36 c93 -80 286 -153 462 -176 118 -14 331 -7 425 16 302 72 473 242 510
506 24 169 -34 357 -140 452 -117 105 -264 161 -608 232 -258 53 -358 82 -425
125 l-48 30 -179 0 c-155 0 -180 -2 -180 -15z"/>
</g>
</svg>
